<svg width="140" height="45" viewBox="0 0 140 45" fill="none" xmlns="http://www.w3.org/2000/svg">
<path d="M6.66016 38.4451C9.30563 38.4451 10.6284 34.757 10.6284 27.3808V17.2968C10.6284 9.95175 9.30563 6.27921 6.66016 6.27921V6.09247H19.2651V6.27921C16.6196 6.27921 15.2969 9.95175 15.2969 17.2968V27.3808C15.2969 34.757 16.6196 38.4451 19.2651 38.4451V38.6318H6.66016V38.4451Z" fill="url(#paint0_linear_3103_204298)"/>
<path d="M39.2407 33.0296L39.8476 33.3097C38.9762 35.3639 37.809 36.8578 36.3462 37.7915C34.9146 38.7252 33.514 39.192 32.1446 39.192C28.2542 39.192 25.1419 37.9004 22.8076 35.3172C20.4734 32.7339 19.3063 29.5283 19.3063 25.7001C19.3063 21.9964 20.5512 18.8219 23.0411 16.1764C25.562 13.5309 28.5966 12.2082 32.1446 12.2082C34.3855 12.2082 36.4863 12.784 38.4471 13.9355V20.9849H38.2603C38.2603 19.8334 37.9802 18.6351 37.42 17.3902C36.8909 16.1141 36.1439 15.0248 35.1791 14.1223C34.2143 13.2197 33.2028 12.7684 32.1446 12.7684C30.7752 12.7684 29.4991 13.3442 28.3164 14.4957C27.1649 15.6473 26.2468 17.219 25.562 19.2109C24.9085 21.2028 24.5817 23.3659 24.5817 25.7001C24.5817 29.466 25.2352 32.5628 26.5424 34.9904C27.8496 37.418 29.717 38.6318 32.1446 38.6318C33.0161 38.6318 33.9031 38.4139 34.8056 37.9782C35.7393 37.5114 36.5952 36.8578 37.3733 36.0175C38.1825 35.146 38.805 34.1501 39.2407 33.0296Z" fill="url(#paint1_linear_3103_204298)"/>
<path d="M63.4183 27.3808C63.4183 34.757 64.7411 38.4451 67.3865 38.4451V38.6318H54.7816V38.4451C57.4271 38.4451 58.7499 34.757 58.7499 27.3808V19.0242C58.7499 16.8144 58.4853 15.2271 57.9562 14.2623C57.4582 13.2664 56.5557 12.7684 55.2485 12.7684C54.377 12.7684 53.4433 13.0952 52.4474 13.7488C51.4826 14.4024 50.6423 15.2271 49.9264 16.2231C49.2106 17.219 48.7749 18.215 48.6192 19.2109V27.3808C48.6192 34.757 49.942 38.4451 52.5875 38.4451V38.6318H39.9825V38.4451C42.628 38.4451 43.9508 34.757 43.9508 27.3808V17.2968C43.9508 16.3009 43.9196 15.445 43.8574 14.7292C43.8263 14.0133 43.7329 13.2508 43.5773 12.4416C43.4217 11.6013 43.2038 10.9321 42.9237 10.4342C42.6436 9.90507 42.2545 9.4849 41.7566 9.17367C41.2586 8.83132 40.6673 8.66014 39.9825 8.66014V8.4734C40.356 8.4734 41.0407 8.36447 42.0367 8.1466C43.0637 7.89762 44.1842 7.58639 45.398 7.21291C46.6118 6.83943 47.6233 6.46595 48.4325 6.09247H48.6192V17.717C49.2106 16.2542 50.1754 14.9782 51.5137 13.8888C52.8831 12.7684 54.2681 12.2082 55.6687 12.2082C58.1274 12.2082 60.0259 12.8151 61.3642 14.0289C62.7336 15.2116 63.4183 16.8767 63.4183 19.0242V27.3808Z" fill="url(#paint2_linear_3103_204298)"/>
<path d="M80.0604 12.2082C81.8033 12.2082 83.4684 12.5661 85.0557 13.2819C86.6429 13.9978 88.0124 14.9626 89.1639 16.1764C90.3155 17.3591 91.2181 18.7907 91.8716 20.4714C92.5564 22.1209 92.8987 23.8638 92.8987 25.7001C92.8987 29.4349 91.6382 32.625 89.1172 35.2705C86.6274 37.8848 83.6084 39.192 80.0604 39.192C76.5123 39.192 73.4778 37.8848 70.9568 35.2705C68.467 32.625 67.2221 29.4504 67.2221 25.7468C67.2221 22.012 68.467 18.8219 70.9568 16.1764C73.4778 13.5309 76.5123 12.2082 80.0604 12.2082ZM74.6916 34.8503C76.1855 37.3713 77.9751 38.6318 80.0604 38.6318C82.1768 38.6318 83.9663 37.3713 85.4291 34.8503C86.9231 32.3293 87.67 29.2793 87.67 25.7001C87.67 22.1209 86.9231 19.0709 85.4291 16.5499C83.9663 14.0289 82.1768 12.7684 80.0604 12.7684C77.9751 12.7684 76.1855 14.0289 74.6916 16.5499C73.2288 19.0709 72.4974 22.1209 72.4974 25.7001C72.4974 29.2793 73.2288 32.3293 74.6916 34.8503Z" fill="url(#paint3_linear_3103_204298)"/>
<path d="M108.042 34.2901L108.463 34.4769C107.84 35.9396 107.093 37.0912 106.222 37.9315C105.381 38.7719 104.479 39.192 103.514 39.192C102.3 39.192 101.258 39.0364 100.386 38.7252C99.5458 38.4451 98.8922 38.0871 98.4254 37.6514C97.9585 37.2157 97.5851 36.6399 97.305 35.9241C97.0248 35.1771 96.8537 34.4768 96.7914 33.8233C96.7292 33.1385 96.6981 32.3293 96.6981 31.3957V17.2968C96.6981 15.6473 96.6202 14.3246 96.4646 13.3286H92.7298V12.7684H96.4179C95.92 10.0296 94.6906 8.66014 92.7298 8.66014V8.4734C93.3523 8.4734 94.6128 8.20885 96.5113 7.67975C98.4098 7.15066 99.966 6.62157 101.18 6.09247H101.367V12.7684H104.728V13.3286H101.367V31.3957C101.367 36.2197 102.082 38.6318 103.514 38.6318C104.417 38.6318 105.288 38.1961 106.128 37.3246C106.969 36.4532 107.607 35.4417 108.042 34.2901Z" fill="url(#paint4_linear_3103_204298)"/>
<path d="M121.338 11.5546H120.731L117.463 5.53225H120.078L121.338 11.5546ZM121.058 12.2082C123.579 12.2082 125.804 12.9551 127.734 14.4491C129.695 15.9118 130.675 17.7014 130.675 19.8178V38.6318H130.488C130.395 38.6007 130.177 38.5073 129.835 38.3517C129.492 38.1961 129.103 38.0093 128.668 37.7915C128.263 37.5425 127.843 37.3091 127.407 37.0912C127.003 36.8733 126.66 36.6866 126.38 36.531L125.96 36.2976C124.964 38.2272 123.252 39.192 120.825 39.192C116.903 39.192 114.04 38.3206 112.235 36.5777C110.461 34.8348 109.574 32.5161 109.574 29.6216C109.574 26.8517 110.523 24.5641 112.421 22.759C114.32 20.9538 116.981 20.0512 120.404 20.0512C121.027 20.0512 121.976 20.2224 123.252 20.5648C124.559 20.876 125.462 21.125 125.96 21.3117V19.8178C125.96 18.355 125.773 17.1101 125.4 16.083C125.057 15.0248 124.513 14.2156 123.766 13.6554C123.05 13.0641 122.147 12.7684 121.058 12.7684C119.689 12.7684 118.381 13.2353 117.137 14.1689C115.892 15.1026 114.911 16.2231 114.195 17.5303C113.511 18.8374 113.168 20.0979 113.168 21.3117H112.982V14.2623C115.503 12.8929 118.195 12.2082 121.058 12.2082ZM125.96 34.1967V21.7319C123.314 20.8916 121.463 20.4714 120.404 20.4714C119.658 20.4714 118.926 20.7204 118.21 21.2184C117.526 21.6852 116.934 22.3232 116.436 23.1324C115.969 23.9416 115.58 24.922 115.269 26.0736C114.989 27.194 114.849 28.3767 114.849 29.6216C114.849 32.2671 115.363 34.4613 116.39 36.2042C117.448 37.916 118.926 38.7719 120.825 38.7719C122.381 38.7719 123.626 38.3206 124.559 37.418C125.493 36.4843 125.96 35.4105 125.96 34.1967Z" fill="url(#paint5_linear_3103_204298)"/>
<path d="M73.2094 4.66859C73.2094 4.024 73.7319 3.50146 74.3765 3.50146H76.7107C77.3553 3.50146 77.8779 4.024 77.8779 4.66859V7.00283C77.8779 7.64741 77.3553 8.16995 76.7107 8.16995H74.3765C73.7319 8.16995 73.2094 7.64741 73.2094 7.00283V4.66859Z" fill="url(#paint6_linear_3103_204298)"/>
<path d="M82.5463 4.66859C82.5463 4.024 83.0689 3.50146 83.7135 3.50146H86.0477C86.6923 3.50146 87.2148 4.024 87.2148 4.66859V7.00283C87.2148 7.64741 86.6923 8.16995 86.0477 8.16995H83.7135C83.0689 8.16995 82.5463 7.64741 82.5463 7.00283V4.66859Z" fill="url(#paint7_linear_3103_204298)"/>
<defs>
<linearGradient id="paint0_linear_3103_204298" x1="68.6676" y1="3.50146" x2="68.6676" y2="39.192" gradientUnits="userSpaceOnUse">
<stop stop-color="#FCFAF6"/>
<stop offset="1" stop-color="#583821"/>
</linearGradient>
<linearGradient id="paint1_linear_3103_204298" x1="68.6676" y1="3.50146" x2="68.6676" y2="39.192" gradientUnits="userSpaceOnUse">
<stop stop-color="#FCFAF6"/>
<stop offset="1" stop-color="#583821"/>
</linearGradient>
<linearGradient id="paint2_linear_3103_204298" x1="68.6676" y1="3.50146" x2="68.6676" y2="39.192" gradientUnits="userSpaceOnUse">
<stop stop-color="#FCFAF6"/>
<stop offset="1" stop-color="#583821"/>
</linearGradient>
<linearGradient id="paint3_linear_3103_204298" x1="68.6676" y1="3.50146" x2="68.6676" y2="39.192" gradientUnits="userSpaceOnUse">
<stop stop-color="#FCFAF6"/>
<stop offset="1" stop-color="#583821"/>
</linearGradient>
<linearGradient id="paint4_linear_3103_204298" x1="68.6676" y1="3.50146" x2="68.6676" y2="39.192" gradientUnits="userSpaceOnUse">
<stop stop-color="#FCFAF6"/>
<stop offset="1" stop-color="#583821"/>
</linearGradient>
<linearGradient id="paint5_linear_3103_204298" x1="68.6676" y1="3.50146" x2="68.6676" y2="39.192" gradientUnits="userSpaceOnUse">
<stop stop-color="#FCFAF6"/>
<stop offset="1" stop-color="#583821"/>
</linearGradient>
<linearGradient id="paint6_linear_3103_204298" x1="68.6676" y1="3.50146" x2="68.6676" y2="39.192" gradientUnits="userSpaceOnUse">
<stop stop-color="#FCFAF6"/>
<stop offset="1" stop-color="#583821"/>
</linearGradient>
<linearGradient id="paint7_linear_3103_204298" x1="68.6676" y1="3.50146" x2="68.6676" y2="39.192" gradientUnits="userSpaceOnUse">
<stop stop-color="#FCFAF6"/>
<stop offset="1" stop-color="#583821"/>
</linearGradient>
</defs>
</svg>
